<?xml version="1.0" encoding="utf-8"?>
<!-- Generator: Adobe Illustrator 24.1.2, SVG Export Plug-In . SVG Version: 6.00 Build 0)  -->
<svg version="1.1" id="Layer_1" xmlns="http://www.w3.org/2000/svg" xmlns:xlink="http://www.w3.org/1999/xlink" x="0px" y="0px"
	 viewBox="0 0 1080 1080" style="enable-background:new 0 0 1080 1080;" xml:space="preserve">
<style type="text/css">
	.st0{display:none;fill:#FFFFFE;}
	.st1{fill:#F26724;}
	.st2{fill:#040302;}
</style>
<g>
	<path class="st0" d="M1079.9,539.98c0,178.44-0.01,356.88,0.08,535.32c0,3.59-0.56,4.69-4.5,4.69
		c-356.89-0.11-713.78-0.11-1070.67,0.01c-4.14,0-4.81-0.94-4.81-4.91C0.11,718.38,0.11,361.67,0.01,4.95C0,1.07,0.54,0,4.77,0
		c356.72,0.13,713.45,0.13,1070.17,0c4.34,0,5.06,1.04,5.06,5.16C1079.88,183.44,1079.9,361.71,1079.9,539.98z M721.67,801.27
		c-1.34,0.98-2.63,2.03-4.02,2.92c-101.82,64.7-212.43,105.78-331.72,123.62c-1.72,0.26-4.2-0.5-4.87,1.59
		c-0.66,2.08,1.78,2.96,3.06,4.11c47.24,42.39,98.18,79.75,152.66,112.3c2.87,1.72,4.89,1.51,7.61-0.12
		c96.33-57.52,180.38-129.4,252.3-215.48c41-49.07,76.87-101.66,107.73-157.67c10.68-19.37,20.69-39.09,29.98-59.16
		c0.63-1.36,3.28-3.41-0.33-4.69c-0.67-1.91-2.55-2.53-3.98-3.56c-20.58-14.73-42.01-28.13-63.63-41.25
		c1.11-0.99,2.17-2.04,3.34-2.95c35.56-27.67,68.78-57.91,99.65-90.74c16.86-17.94,28.8-38.66,34.67-62.59
		c7.14-29.1,11.82-58.68,15.74-88.37c3.91-29.56,6.42-59.26,7.58-89.05c0.9-22.96,1.24-45.94,0.23-68.92
		c0.84-11.65-1-23.22-0.93-34.84c0.02-3.02-2.25-3.36-4.12-4.16c-19.32-8.22-38.87-15.88-58.73-22.72
		c-20.45-7.04-40.93-14.04-61.96-19.23c-0.62-0.24-1.23-0.53-1.87-0.71c-55.31-15.51-111.49-26.8-168.4-34.54
		c-31.51-4.29-63.13-7.49-94.85-9.54c-16.6-1.07-33.21-2.3-49.87-2.19c-0.66-0.1-1.31-0.27-1.97-0.3
		c-63.5-2.5-126.84,0.22-190.03,6.44c-34.39,3.39-68.58,8.35-102.61,14.51C231.71,64.95,172.2,80.1,114.11,100.67
		c-14.32,5.07-28.76,9.9-42.47,16.55c-4.48,1.74-8.9,3.63-13.44,5.17c-2.85,0.96-3.76,2.74-3.85,5.56
		c-0.33,10.15-0.97,20.3-1.21,30.45c-0.92,38.49-0.19,76.94,3.09,115.32c1.97,23.06,4.75,46.02,8.16,68.91
		c0.41,2.76,1.05,4.66,4.44,5.44c47.46,10.94,95.47,18.05,144.09,20.79c60.37,3.4,120.48,0.69,180.29-8.6
		c61.69-9.59,121.56-25.78,179.65-48.62c12.98-5.1,25.81-10.58,38.7-15.89c15.19,1.74,30.38,3.42,45.55,5.22
		c28.52,3.39,56.84,8.09,85.04,13.55c39.55,7.66,78.61,17.35,117.19,28.96c-1.61,1.44-3.15,2.95-4.83,4.29
		c-41.65,33.44-85.99,62.82-133.13,87.93c-25.84,13.76-52.17,26.49-79.49,37.09c-0.28-0.18-0.53-0.45-0.83-0.53
		c-59.58-14.75-120.06-23.09-181.39-24.97c-51.35-1.57-102.5,1.36-153.32,8.96c-51.94,7.77-102.81,20.08-152.44,37.34
		c-13.56,4.71-27.25,9.13-40.2,15.43c-8.16,2.33-8.17,2.33-5.49,10c25.15,72.18,58.12,140.59,98.82,205.29
		c2.29,3.63,4.93,5.11,9.04,5.73c31.29,4.7,62.71,7.97,94.34,9.31c46,1.95,91.88,0.58,137.6-4.98c15.67-1.91,31.29-4.29,46.94-6.45
		c0.56,0.3,1.09,0.77,1.68,0.87c43.56,7.47,86.18,18.59,128.02,32.77C657.81,772.79,690.02,786.33,721.67,801.27z"/>
	<path class="st1" d="M641.87,472.77c27.32-10.6,53.66-23.32,79.49-37.09c47.14-25.11,91.48-54.48,133.13-87.93
		c1.68-1.35,3.22-2.86,4.83-4.3c11.68-8.84,22.51-18.68,33.42-28.42c31.6-28.22,60.59-58.94,87.67-91.49
		c16.69-20.06,32.05-41.11,47.26-62.28c1.02,22.98,0.67,45.96-0.23,68.92c-1.16,29.79-3.67,59.48-7.58,89.05
		c-3.93,29.69-8.6,59.26-15.74,88.37c-5.87,23.93-17.81,44.65-34.67,62.59c-30.87,32.83-64.09,63.07-99.65,90.74
		c-1.17,0.91-2.23,1.97-3.34,2.96c-16,11.6-31.84,23.42-48.33,34.34c-86.38,57.21-179.87,97.88-280.98,120.78
		c-14.03,3.18-28.15,5.94-42.23,8.89c-15.64,2.17-31.26,4.55-46.93,6.46c-45.72,5.57-91.6,6.94-137.6,4.98
		c-31.62-1.34-63.04-4.61-94.34-9.31c-4.11-0.62-6.76-2.1-9.04-5.73c-40.7-64.7-73.67-133.11-98.82-205.29
		c-2.67-7.68-2.67-7.68,5.49-10c0.61,0.25,1.21,0.58,1.84,0.74c51.41,12.93,103.61,20.95,156.5,24.09
		c29.91,1.77,59.87,1.75,89.84,0.43c27.08-1.2,54.03-3.65,80.83-7.43c37.06-5.22,73.65-12.93,109.67-23.16
		C582.78,495.04,612.73,485.05,641.87,472.77z M471.43,82.49c-43.48,14.86-87.93,25.9-133.22,33.41
		c-27.51,4.56-55.23,7.54-83.09,9.4c-34.13,2.28-68.24,2.41-102.34,0.66c-26.71-1.37-53.3-4.27-79.77-8.15
		c-0.47-0.07-0.91-0.39-1.37-0.59c-4.48,1.74-8.9,3.63-13.45,5.17c-2.85,0.96-3.76,2.74-3.85,5.56c-0.33,10.15-0.97,20.3-1.21,30.45
		c-0.92,38.49-0.19,76.94,3.09,115.32c1.97,23.06,4.75,46.02,8.16,68.91c0.41,2.76,1.05,4.66,4.44,5.44
		c47.46,10.94,95.47,18.05,144.09,20.79c60.37,3.4,120.48,0.69,180.29-8.6c61.69-9.59,121.56-25.78,179.65-48.62
		c12.98-5.1,25.81-10.58,38.7-15.89c15.88-7.9,31.92-15.49,47.6-23.76c55.12-29.09,106.39-63.9,153.87-104.29
		c31.73-27,61.55-55.93,88.92-87.36c-0.62-0.24-1.23-0.53-1.87-0.71c-55.31-15.51-111.49-26.8-168.4-34.54
		c-31.51-4.29-63.13-7.49-94.85-9.54c-16.6-1.07-33.21-2.3-49.87-2.19C549.78,52.88,511.14,68.92,471.43,82.49z M908.09,639.52
		c-25.24,29.48-52.58,56.89-81.61,82.64c-31.12,27.6-64.11,52.71-98.84,75.58c-1.93,1.27-3.98,2.36-5.98,3.53
		c-1.34,0.98-2.62,2.03-4.02,2.92c-101.82,64.7-212.43,105.78-331.72,123.62c-1.72,0.26-4.2-0.5-4.87,1.59
		c-0.66,2.08,1.78,2.96,3.06,4.11c47.24,42.39,98.18,79.75,152.66,112.3c2.87,1.72,4.89,1.51,7.61-0.12
		c96.33-57.52,180.38-129.4,252.3-215.48c41-49.07,76.87-101.66,107.73-157.67c10.68-19.37,20.69-39.09,29.98-59.16
		c0.63-1.36,3.28-3.41-0.33-4.69C925.42,618.97,916.83,629.31,908.09,639.52z"/>
	<path class="st2" d="M611.55,295.73c15.88-7.9,31.92-15.49,47.6-23.76c55.12-29.09,106.39-63.9,153.87-104.29
		c31.73-27,61.55-55.93,88.92-87.36c21.03,5.19,41.51,12.19,61.96,19.23c19.85,6.84,39.4,14.49,58.73,22.72
		c1.88,0.8,4.14,1.14,4.12,4.16c-0.07,11.62,1.77,23.2,0.93,34.85c-15.21,21.17-30.57,42.23-47.26,62.28
		c-27.08,32.55-56.07,63.27-87.67,91.49c-10.91,9.74-21.74,19.58-33.42,28.42c-38.58-11.6-77.63-21.3-117.19-28.96
		c-28.19-5.46-56.51-10.16-85.04-13.55C641.92,299.15,626.73,297.47,611.55,295.73z M930.1,605.13
		c-20.58-14.73-42.01-28.13-63.63-41.25c-16,11.6-31.84,23.42-48.33,34.34c-86.38,57.21-179.87,97.88-280.98,120.78
		c-14.03,3.18-28.15,5.94-42.23,8.89c0.56,0.3,1.09,0.77,1.68,0.87c43.56,7.47,86.18,18.59,128.02,32.77
		c33.17,11.24,65.38,24.79,97.02,39.72c1.99-1.17,4.04-2.26,5.98-3.53c34.72-22.86,67.72-47.98,98.84-75.58
		c29.04-25.75,56.37-53.16,81.61-82.64c8.74-10.21,17.33-20.55,25.99-30.83C933.4,606.78,931.53,606.16,930.1,605.13z
		 M641.04,472.24c-59.58-14.75-120.06-23.09-181.39-24.97c-51.35-1.57-102.5,1.36-153.32,8.96
		c-51.94,7.77-102.81,20.08-152.44,37.34c-13.56,4.71-27.25,9.13-40.2,15.43c0.61,0.25,1.21,0.58,1.84,0.74
		c51.41,12.93,103.61,20.95,156.5,24.09c29.91,1.77,59.87,1.75,89.84,0.43c27.08-1.2,54.03-3.65,80.83-7.43
		c37.06-5.22,73.65-12.93,109.67-23.16c30.4-8.63,60.34-18.62,89.49-30.91C641.6,472.59,641.34,472.32,641.04,472.24z M584.97,33.04
		c-63.5-2.5-126.84,0.22-190.03,6.44c-34.39,3.39-68.58,8.35-102.61,14.51C231.71,64.95,172.2,80.1,114.11,100.67
		c-14.32,5.07-28.76,9.9-42.47,16.55c0.46,0.2,0.89,0.52,1.37,0.59c26.47,3.88,53.06,6.78,79.77,8.15
		c34.11,1.75,68.22,1.63,102.34-0.66c27.86-1.86,55.58-4.84,83.09-9.4c45.29-7.51,89.74-18.55,133.22-33.41
		c39.7-13.57,78.35-29.61,115.51-49.16C586.29,33.24,585.63,33.07,584.97,33.04z"/>
</g>
</svg>
